<?xml version="1.0" encoding="utf-8"?>
<!-- Generator: Adobe Illustrator 24.1.3, SVG Export Plug-In . SVG Version: 6.00 Build 0)  -->
<svg version="1.1" id="Layer_1" xmlns="http://www.w3.org/2000/svg" xmlns:xlink="http://www.w3.org/1999/xlink" x="0px" y="0px"
	 viewBox="0 0 520.4 396.6" style="enable-background:new 0 0 520.4 396.6;" xml:space="preserve">
<style type="text/css">
	.st0{opacity:0.4;}
	.st1{fill:#2D83FB;}
	.st2{fill:none;stroke:#2D83FB;stroke-linecap:round;stroke-miterlimit:10;stroke-dasharray:9;}
	.st3{fill:#F89C1C;}
	.st4{opacity:0.5;}
	.st5{fill:#003366;}
	.st6{opacity:0.3;}
	.st7{fill:#FFFFFF;}
	.st8{fill:#333333;}
	.st9{enable-background:new    ;}
	.st10{fill:#FF9900;}
	.st11{fill:#B3B3B3;}
	.st12{fill:#FF9933;}
	.st13{fill:#CAC9C2;}
	.st14{fill:#5072AA;}
	.st15{fill:#4D6796;}
	.st16{fill:#CC4232;}
	.st17{fill:#B23F33;}
	.st18{fill:#ECB02A;}
	.st19{fill:#C79732;}
	.st20{fill:#CC3333;}
	.st21{fill:#1EBAED;}
	.st22{fill-rule:evenodd;clip-rule:evenodd;fill:#00ADEF;}
</style>
<g>
	<g>
		<g class="st0">
			<path class="st1" d="M464,304.7c-0.3,0-0.5-0.2-0.5-0.5v-9c0-0.3,0.2-0.5,0.5-0.5s0.5,0.2,0.5,0.5v9
				C464.5,304.5,464.3,304.7,464,304.7z M464,286.7c-0.3,0-0.5-0.2-0.5-0.5v-9c0-0.3,0.2-0.5,0.5-0.5s0.5,0.2,0.5,0.5v9
				C464.5,286.5,464.3,286.7,464,286.7z M464,268.7c-0.3,0-0.5-0.2-0.5-0.5v-9c0-0.3,0.2-0.5,0.5-0.5s0.5,0.2,0.5,0.5v9
				C464.5,268.5,464.3,268.7,464,268.7z M464,250.7c-0.3,0-0.5-0.2-0.5-0.5v-9c0-0.3,0.2-0.5,0.5-0.5s0.5,0.2,0.5,0.5v9
				C464.5,250.5,464.3,250.7,464,250.7z M464,232.7c-0.3,0-0.5-0.2-0.5-0.5v-9c0-0.3,0.2-0.5,0.5-0.5s0.5,0.2,0.5,0.5v9
				C464.5,232.5,464.3,232.7,464,232.7z M464,214.7c-0.3,0-0.5-0.2-0.5-0.5v-9c0-0.3,0.2-0.5,0.5-0.5s0.5,0.2,0.5,0.5v9
				C464.5,214.5,464.3,214.7,464,214.7z M464,196.7c-0.3,0-0.5-0.2-0.5-0.5v-9c0-0.3,0.2-0.5,0.5-0.5s0.5,0.2,0.5,0.5v9
				C464.5,196.5,464.3,196.7,464,196.7z M464,178.7c-0.3,0-0.5-0.2-0.5-0.5v-9c0-0.3,0.2-0.5,0.5-0.5s0.5,0.2,0.5,0.5v9
				C464.5,178.5,464.3,178.7,464,178.7z M464,160.7c-0.3,0-0.5-0.2-0.5-0.5v-9c0-0.3,0.2-0.5,0.5-0.5s0.5,0.2,0.5,0.5v9
				C464.5,160.5,464.3,160.7,464,160.7z M464,142.7c-0.3,0-0.5-0.2-0.5-0.5v-1c0-0.3,0.2-0.5,0.5-0.5s0.5,0.2,0.5,0.5v1
				C464.5,142.5,464.3,142.7,464,142.7z"/>
		</g>
		<g class="st0">
			<path class="st1" d="M88.2,227.4c-0.3,0-0.5-0.2-0.5-0.5v-9c0-0.3,0.2-0.5,0.5-0.5s0.5,0.2,0.5,0.5v9
				C88.7,227.2,88.5,227.4,88.2,227.4z M88.2,209.4c-0.3,0-0.5-0.2-0.5-0.5v-9c0-0.3,0.2-0.5,0.5-0.5s0.5,0.2,0.5,0.5v9
				C88.7,209.2,88.5,209.4,88.2,209.4z M88.2,191.4c-0.3,0-0.5-0.2-0.5-0.5v-9c0-0.3,0.2-0.5,0.5-0.5s0.5,0.2,0.5,0.5v9
				C88.7,191.2,88.5,191.4,88.2,191.4z M88.2,173.4c-0.3,0-0.5-0.2-0.5-0.5v-9c0-0.3,0.2-0.5,0.5-0.5s0.5,0.2,0.5,0.5v9
				C88.7,173.2,88.5,173.4,88.2,173.4z M88.2,155.4c-0.3,0-0.5-0.2-0.5-0.5v-9c0-0.3,0.2-0.5,0.5-0.5s0.5,0.2,0.5,0.5v9
				C88.7,155.2,88.5,155.4,88.2,155.4z M88.2,137.4c-0.3,0-0.5-0.2-0.5-0.5v-9c0-0.3,0.2-0.5,0.5-0.5s0.5,0.2,0.5,0.5v9
				C88.7,137.2,88.5,137.4,88.2,137.4z M88.2,119.4c-0.3,0-0.5-0.2-0.5-0.5v-9c0-0.3,0.2-0.5,0.5-0.5s0.5,0.2,0.5,0.5v9
				C88.7,119.2,88.5,119.4,88.2,119.4z M88.2,101.4c-0.3,0-0.5-0.2-0.5-0.5v-9c0-0.3,0.2-0.5,0.5-0.5s0.5,0.2,0.5,0.5v9
				C88.7,101.2,88.5,101.4,88.2,101.4z M88.2,83.4c-0.3,0-0.5-0.2-0.5-0.5v-9c0-0.3,0.2-0.5,0.5-0.5s0.5,0.2,0.5,0.5v9
				C88.7,83.2,88.5,83.4,88.2,83.4z M88.2,65.4c-0.3,0-0.5-0.2-0.5-0.5v-9c0-0.3,0.2-0.5,0.5-0.5s0.5,0.2,0.5,0.5v9
				C88.7,65.2,88.5,65.4,88.2,65.4z M88.2,47.4c-0.3,0-0.5-0.2-0.5-0.5v-9c0-0.3,0.2-0.5,0.5-0.5s0.5,0.2,0.5,0.5v9
				C88.7,47.2,88.5,47.4,88.2,47.4z M88.2,29.4c-0.3,0-0.5-0.2-0.5-0.5v-9c0-0.3,0.2-0.5,0.5-0.5s0.5,0.2,0.5,0.5v9
				C88.7,29.2,88.5,29.4,88.2,29.4z"/>
		</g>
		<g>
			<path class="st3" d="M106.8,221.2c-0.6,0-1-0.4-1-1v-9c0-0.6,0.4-1,1-1s1,0.4,1,1v9C107.8,220.8,107.3,221.2,106.8,221.2z
				 M106.8,203.2c-0.6,0-1-0.4-1-1v-9c0-0.6,0.4-1,1-1s1,0.4,1,1v9C107.8,202.8,107.3,203.2,106.8,203.2z M106.8,185.2
				c-0.6,0-1-0.4-1-1v-9c0-0.6,0.4-1,1-1s1,0.4,1,1v9C107.8,184.8,107.3,185.2,106.8,185.2z M106.8,167.2c-0.6,0-1-0.4-1-1v-9
				c0-0.6,0.4-1,1-1s1,0.4,1,1v9C107.8,166.8,107.3,167.2,106.8,167.2z M106.8,149.2c-0.6,0-1-0.4-1-1v-9c0-0.6,0.4-1,1-1s1,0.4,1,1
				v9C107.8,148.8,107.3,149.2,106.8,149.2z M106.8,131.2c-0.6,0-1-0.4-1-1v-9c0-0.6,0.4-1,1-1s1,0.4,1,1v9
				C107.8,130.8,107.3,131.2,106.8,131.2z M106.8,113.2c-0.6,0-1-0.4-1-1v-9c0-0.6,0.4-1,1-1s1,0.4,1,1v9
				C107.8,112.8,107.3,113.2,106.8,113.2z M106.8,95.2c-0.6,0-1-0.4-1-1v-9c0-0.6,0.4-1,1-1s1,0.4,1,1v9
				C107.8,94.8,107.3,95.2,106.8,95.2z M106.8,77.2c-0.6,0-1-0.4-1-1v-0.3c0-0.6,0.4-1,1-1s1,0.4,1,1v0.3
				C107.8,76.8,107.3,77.2,106.8,77.2z"/>
		</g>
		<g class="st0">
			<g>
				<path class="st1" d="M519.9,225.7c-0.1,0-0.2,0-0.3-0.1l-1-0.7c-0.2-0.2-0.3-0.5-0.1-0.7c0.2-0.2,0.5-0.3,0.7-0.1l1,0.7
					c0.2,0.2,0.3,0.5,0.1,0.7C520.2,225.7,520,225.7,519.9,225.7z M511.4,219.9c-0.1,0-0.2,0-0.3-0.1l-7.4-5.1
					c-0.2-0.2-0.3-0.5-0.1-0.7c0.2-0.2,0.5-0.3,0.7-0.1l7.4,5.1c0.2,0.2,0.3,0.5,0.1,0.7C511.7,219.9,511.6,219.9,511.4,219.9z
					 M496.5,209.8c-0.1,0-0.2,0-0.3-0.1l-7.4-5.1c-0.2-0.2-0.3-0.5-0.1-0.7s0.5-0.3,0.7-0.1l7.4,5.1c0.2,0.2,0.3,0.5,0.1,0.7
					C496.9,209.7,496.7,209.8,496.5,209.8z"/>
			</g>
			<g>
				<path class="st1" d="M447,175.8c-0.1,0-0.2,0-0.3-0.1l-7.4-5.1c-0.2-0.2-0.3-0.5-0.1-0.7c0.2-0.2,0.5-0.3,0.7-0.1l7.4,5.1
					c0.2,0.2,0.3,0.5,0.1,0.7C447.3,175.7,447.1,175.8,447,175.8z M432.1,165.6c-0.1,0-0.2,0-0.3-0.1l-7.4-5.1
					c-0.2-0.2-0.3-0.5-0.1-0.7c0.2-0.2,0.5-0.3,0.7-0.1l7.4,5.1c0.2,0.2,0.3,0.5,0.1,0.7C432.4,165.6,432.3,165.6,432.1,165.6z
					 M417.3,155.5c-0.1,0-0.2,0-0.3-0.1l-7.4-5.1c-0.2-0.2-0.3-0.5-0.1-0.7c0.2-0.2,0.5-0.3,0.7-0.1l7.4,5.1
					c0.2,0.2,0.3,0.5,0.1,0.7C417.6,155.4,417.4,155.5,417.3,155.5z M402.4,145.3c-0.1,0-0.2,0-0.3-0.1l-7.4-5.1
					c-0.2-0.2-0.3-0.5-0.1-0.7c0.2-0.2,0.5-0.3,0.7-0.1l7.4,5.1c0.2,0.2,0.3,0.5,0.1,0.7C402.7,145.2,402.6,145.3,402.4,145.3z
					 M387.6,135.1c-0.1,0-0.2,0-0.3-0.1l-7.4-5.1c-0.2-0.2-0.3-0.5-0.1-0.7c0.2-0.2,0.5-0.3,0.7-0.1l7.4,5.1
					c0.2,0.2,0.3,0.5,0.1,0.7C387.9,135,387.7,135.1,387.6,135.1z M372.7,124.9c-0.1,0-0.2,0-0.3-0.1l-7.4-5.1
					c-0.2-0.2-0.3-0.5-0.1-0.7c0.2-0.2,0.5-0.3,0.7-0.1l7.4,5.1c0.2,0.2,0.3,0.5,0.1,0.7C373,124.9,372.9,124.9,372.7,124.9z
					 M357.9,114.8c-0.1,0-0.2,0-0.3-0.1l-7.4-5.1c-0.2-0.2-0.3-0.5-0.1-0.7s0.5-0.3,0.7-0.1l7.4,5.1c0.2,0.2,0.3,0.5,0.1,0.7
					C358.2,114.7,358,114.8,357.9,114.8z M343,104.6c-0.1,0-0.2,0-0.3-0.1l-7.4-5.1c-0.2-0.2-0.3-0.5-0.1-0.7
					c0.2-0.2,0.5-0.3,0.7-0.1l7.4,5.1c0.2,0.2,0.3,0.5,0.1,0.7C343.3,104.5,343.2,104.6,343,104.6z M328.2,94.4
					c-0.1,0-0.2,0-0.3-0.1l-7.4-5.1c-0.2-0.2-0.3-0.5-0.1-0.7c0.2-0.2,0.5-0.3,0.7-0.1l7.4,5.1c0.2,0.2,0.3,0.5,0.1,0.7
					C328.5,94.4,328.3,94.4,328.2,94.4z M313.3,84.3c-0.1,0-0.2,0-0.3-0.1l-7.4-5.1c-0.2-0.2-0.3-0.5-0.1-0.7
					c0.2-0.2,0.5-0.3,0.7-0.1l7.4,5.1c0.2,0.2,0.3,0.5,0.1,0.7C313.6,84.2,313.5,84.3,313.3,84.3z M298.5,74.1c-0.1,0-0.2,0-0.3-0.1
					l-7.4-5.1c-0.2-0.2-0.3-0.5-0.1-0.7c0.2-0.2,0.5-0.3,0.7-0.1l7.4,5.1c0.2,0.2,0.3,0.5,0.1,0.7C298.8,74,298.6,74.1,298.5,74.1z
					 M283.6,63.9c-0.1,0-0.2,0-0.3-0.1l-7.4-5.1c-0.2-0.2-0.3-0.5-0.1-0.7c0.2-0.2,0.5-0.3,0.7-0.1l7.4,5.1c0.2,0.2,0.3,0.5,0.1,0.7
					C283.9,63.8,283.8,63.9,283.6,63.9z"/>
			</g>
			<g>
				<path class="st1" d="M68,174.2c-0.2,0-0.3-0.1-0.4-0.2c-0.2-0.2-0.1-0.5,0.1-0.7l7.5-4.9c0.2-0.2,0.5-0.1,0.7,0.1
					c0.2,0.2,0.1,0.5-0.1,0.7l-7.5,4.9C68.2,174.1,68.1,174.2,68,174.2z M83,164.3c-0.2,0-0.3-0.1-0.4-0.2c-0.2-0.2-0.1-0.5,0.1-0.7
					l7.5-4.9c0.2-0.2,0.5-0.1,0.7,0.1c0.2,0.2,0.1,0.5-0.1,0.7l-7.5,4.9C83.2,164.2,83.1,164.3,83,164.3z M98,154.4
					c-0.2,0-0.3-0.1-0.4-0.2c-0.2-0.2-0.1-0.5,0.1-0.7l7.5-4.9c0.2-0.2,0.5-0.1,0.7,0.1c0.2,0.2,0.1,0.5-0.1,0.7l-7.5,4.9
					C98.2,154.4,98.1,154.4,98,154.4z M113.1,144.5c-0.2,0-0.3-0.1-0.4-0.2c-0.2-0.2-0.1-0.5,0.1-0.7l7.5-4.9
					c0.2-0.2,0.5-0.1,0.7,0.1c0.2,0.2,0.1,0.5-0.1,0.7l-7.5,4.9C113.3,144.5,113.2,144.5,113.1,144.5z M128.1,134.6
					c-0.2,0-0.3-0.1-0.4-0.2c-0.2-0.2-0.1-0.5,0.1-0.7l7.5-4.9c0.2-0.2,0.5-0.1,0.7,0.1c0.2,0.2,0.1,0.5-0.1,0.7l-7.5,4.9
					C128.3,134.6,128.2,134.6,128.1,134.6z M143.1,124.7c-0.2,0-0.3-0.1-0.4-0.2c-0.2-0.2-0.1-0.5,0.1-0.7l7.5-4.9
					c0.2-0.2,0.5-0.1,0.7,0.1c0.2,0.2,0.1,0.5-0.1,0.7l-7.5,4.9C143.3,124.7,143.2,124.7,143.1,124.7z M158.2,114.8
					c-0.2,0-0.3-0.1-0.4-0.2c-0.2-0.2-0.1-0.5,0.1-0.7l7.5-4.9c0.2-0.2,0.5-0.1,0.7,0.1c0.2,0.2,0.1,0.5-0.1,0.7l-7.5,4.9
					C158.4,114.8,158.3,114.8,158.2,114.8z M173.2,104.9c-0.2,0-0.3-0.1-0.4-0.2c-0.2-0.2-0.1-0.5,0.1-0.7l7.5-4.9
					c0.2-0.2,0.5-0.1,0.7,0.1c0.2,0.2,0.1,0.5-0.1,0.7l-7.5,4.9C173.4,104.9,173.3,104.9,173.2,104.9z M188.3,95
					c-0.2,0-0.3-0.1-0.4-0.2c-0.2-0.2-0.1-0.5,0.1-0.7l7.5-4.9c0.2-0.2,0.5-0.1,0.7,0.1c0.2,0.2,0.1,0.5-0.1,0.7l-7.5,4.9
					C188.4,95,188.3,95,188.3,95z M203.3,85.1c-0.2,0-0.3-0.1-0.4-0.2c-0.2-0.2-0.1-0.5,0.1-0.7l7.5-4.9c0.2-0.2,0.5-0.1,0.7,0.1
					c0.2,0.2,0.1,0.5-0.1,0.7l-7.5,4.9C203.5,85.1,203.4,85.1,203.3,85.1z M218.3,75.2c-0.2,0-0.3-0.1-0.4-0.2
					c-0.2-0.2-0.1-0.5,0.1-0.7l7.5-4.9c0.2-0.2,0.5-0.1,0.7,0.1c0.2,0.2,0.1,0.5-0.1,0.7l-7.5,4.9C218.5,75.2,218.4,75.2,218.3,75.2
					z M233.4,65.3c-0.2,0-0.3-0.1-0.4-0.2c-0.2-0.2-0.1-0.5,0.1-0.7l7.5-4.9c0.2-0.2,0.5-0.1,0.7,0.1c0.2,0.2,0.1,0.5-0.1,0.7
					l-7.5,4.9C233.5,65.3,233.5,65.3,233.4,65.3z M248.4,55.4c-0.2,0-0.3-0.1-0.4-0.2c-0.2-0.2-0.1-0.5,0.1-0.7l7.5-4.9
					c0.2-0.2,0.5-0.1,0.7,0.1c0.2,0.2,0.1,0.5-0.1,0.7l-7.5,4.9C248.6,55.4,248.5,55.4,248.4,55.4z M263.4,45.5
					c-0.2,0-0.3-0.1-0.4-0.2c-0.2-0.2-0.1-0.5,0.1-0.7l7.5-4.9c0.2-0.2,0.5-0.1,0.7,0.1c0.2,0.2,0.1,0.5-0.1,0.7l-7.5,4.9
					C263.6,45.5,263.5,45.5,263.4,45.5z M278.5,35.6c-0.2,0-0.3-0.1-0.4-0.2c-0.2-0.2-0.1-0.5,0.1-0.7l7.5-4.9
					c0.2-0.2,0.5-0.1,0.7,0.1c0.2,0.2,0.1,0.5-0.1,0.7l-7.5,4.9C278.7,35.6,278.6,35.6,278.5,35.6z M293.5,25.7
					c-0.2,0-0.3-0.1-0.4-0.2c-0.2-0.2-0.1-0.5,0.1-0.7l7.5-4.9c0.2-0.2,0.5-0.1,0.7,0.1c0.2,0.2,0.1,0.5-0.1,0.7l-7.5,4.9
					C293.7,25.7,293.6,25.7,293.5,25.7z M308.5,15.8c-0.2,0-0.3-0.1-0.4-0.2c-0.2-0.2-0.1-0.5,0.1-0.7l7.5-4.9
					c0.2-0.2,0.5-0.1,0.7,0.1c0.2,0.2,0.1,0.5-0.1,0.7l-7.5,4.9C308.7,15.8,308.6,15.8,308.5,15.8z M323.6,5.9
					c-0.2,0-0.3-0.1-0.4-0.2c-0.2-0.2-0.1-0.5,0.1-0.7l7.5-4.9c0.2-0.2,0.5-0.1,0.7,0.1c0.2,0.2,0.1,0.5-0.1,0.7l-7.5,4.9
					C323.8,5.9,323.7,5.9,323.6,5.9z"/>
			</g>
			<g>
				<path class="st1" d="M200.9,381.6c-0.2,0-0.3-0.1-0.4-0.2c-0.2-0.2-0.1-0.5,0.1-0.7l7.5-4.9c0.2-0.2,0.5-0.1,0.7,0.1
					c0.2,0.2,0.1,0.5-0.1,0.7l-7.5,4.9C201.1,381.6,201,381.6,200.9,381.6z M216,371.7c-0.2,0-0.3-0.1-0.4-0.2
					c-0.2-0.2-0.1-0.5,0.1-0.7l7.5-4.9c0.2-0.2,0.5-0.1,0.7,0.1c0.2,0.2,0.1,0.5-0.1,0.7l-7.5,4.9
					C216.2,371.7,216.1,371.7,216,371.7z M231,361.8c-0.2,0-0.3-0.1-0.4-0.2c-0.2-0.2-0.1-0.5,0.1-0.7l7.5-4.9
					c0.2-0.2,0.5-0.1,0.7,0.1c0.2,0.2,0.1,0.5-0.1,0.7l-7.5,4.9C231.2,361.8,231.1,361.8,231,361.8z M246.1,351.9
					c-0.2,0-0.3-0.1-0.4-0.2c-0.2-0.2-0.1-0.5,0.1-0.7l7.5-4.9c0.2-0.2,0.5-0.1,0.7,0.1c0.2,0.2,0.1,0.5-0.1,0.7l-7.5,4.9
					C246.2,351.9,246.2,351.9,246.1,351.9z M261.1,342c-0.2,0-0.3-0.1-0.4-0.2c-0.2-0.2-0.1-0.5,0.1-0.7l7.5-4.9
					c0.2-0.2,0.5-0.1,0.7,0.1c0.2,0.2,0.1,0.5-0.1,0.7l-7.5,4.9C261.3,342,261.2,342,261.1,342z M276.1,332.1
					c-0.2,0-0.3-0.1-0.4-0.2c-0.2-0.2-0.1-0.5,0.1-0.7l7.5-4.9c0.2-0.2,0.5-0.1,0.7,0.1c0.2,0.2,0.1,0.5-0.1,0.7l-7.5,4.9
					C276.3,332.1,276.2,332.1,276.1,332.1z M291.2,322.2c-0.2,0-0.3-0.1-0.4-0.2c-0.2-0.2-0.1-0.5,0.1-0.7l7.5-4.9
					c0.2-0.2,0.5-0.1,0.7,0.1c0.2,0.2,0.1,0.5-0.1,0.7l-7.5,4.9C291.4,322.2,291.3,322.2,291.2,322.2z M306.2,312.3
					c-0.2,0-0.3-0.1-0.4-0.2c-0.2-0.2-0.1-0.5,0.1-0.7l7.5-4.9c0.2-0.2,0.5-0.1,0.7,0.1c0.2,0.2,0.1,0.5-0.1,0.7l-7.5,4.9
					C306.4,312.3,306.3,312.3,306.2,312.3z M321.2,302.4c-0.2,0-0.3-0.1-0.4-0.2c-0.2-0.2-0.1-0.5,0.1-0.7l7.5-4.9
					c0.2-0.2,0.5-0.1,0.7,0.1c0.2,0.2,0.1,0.5-0.1,0.7l-7.5,4.9C321.4,302.4,321.3,302.4,321.2,302.4z M336.3,292.5
					c-0.2,0-0.3-0.1-0.4-0.2c-0.2-0.2-0.1-0.5,0.1-0.7l7.5-4.9c0.2-0.2,0.5-0.1,0.7,0.1c0.2,0.2,0.1,0.5-0.1,0.7l-7.5,4.9
					C336.5,292.5,336.4,292.5,336.3,292.5z M351.3,282.6c-0.2,0-0.3-0.1-0.4-0.2c-0.2-0.2-0.1-0.5,0.1-0.7l7.5-4.9
					c0.2-0.2,0.5-0.1,0.7,0.1c0.2,0.2,0.1,0.5-0.1,0.7l-7.5,4.9C351.5,282.6,351.4,282.6,351.3,282.6z M366.3,272.7
					c-0.2,0-0.3-0.1-0.4-0.2c-0.2-0.2-0.1-0.5,0.1-0.7l7.5-4.9c0.2-0.2,0.5-0.1,0.7,0.1c0.2,0.2,0.1,0.5-0.1,0.7l-7.5,4.9
					C366.5,272.7,366.4,272.7,366.3,272.7z M381.4,262.9c-0.2,0-0.3-0.1-0.4-0.2c-0.2-0.2-0.1-0.5,0.1-0.7l7.5-4.9
					c0.2-0.2,0.5-0.1,0.7,0.1c0.2,0.2,0.1,0.5-0.1,0.7l-7.5,4.9C381.6,262.8,381.5,262.9,381.4,262.9z M396.4,253
					c-0.2,0-0.3-0.1-0.4-0.2c-0.2-0.2-0.1-0.5,0.1-0.7l7.5-4.9c0.2-0.2,0.5-0.1,0.7,0.1c0.2,0.2,0.1,0.5-0.1,0.7l-7.5,4.9
					C396.6,252.9,396.5,253,396.4,253z M411.5,243.1c-0.2,0-0.3-0.1-0.4-0.2c-0.2-0.2-0.1-0.5,0.1-0.7l7.5-4.9
					c0.2-0.2,0.5-0.1,0.7,0.1c0.2,0.2,0.1,0.5-0.1,0.7l-7.5,4.9C411.6,243,411.5,243.1,411.5,243.1z M426.5,233.2
					c-0.2,0-0.3-0.1-0.4-0.2c-0.2-0.2-0.1-0.5,0.1-0.7l7.5-4.9c0.2-0.2,0.5-0.1,0.7,0.1c0.2,0.2,0.1,0.5-0.1,0.7l-7.5,4.9
					C426.7,233.1,426.6,233.2,426.5,233.2z M441.5,223.3c-0.2,0-0.3-0.1-0.4-0.2c-0.2-0.2-0.1-0.5,0.1-0.7l7.5-4.9
					c0.2-0.2,0.5-0.1,0.7,0.1c0.2,0.2,0.1,0.5-0.1,0.7l-7.5,4.9C441.7,223.2,441.6,223.3,441.5,223.3z"/>
			</g>
			<g>
				<path class="st1" d="M78.5,319.8c-0.2,0-0.3-0.1-0.4-0.2c-0.2-0.2-0.1-0.5,0.1-0.7l7.5-4.9c0.2-0.2,0.5-0.1,0.7,0.1
					c0.2,0.2,0.1,0.5-0.1,0.7l-7.5,4.9C78.7,319.8,78.6,319.8,78.5,319.8z M93.5,309.9c-0.2,0-0.3-0.1-0.4-0.2
					c-0.2-0.2-0.1-0.5,0.1-0.7l7.5-4.9c0.2-0.2,0.5-0.1,0.7,0.1c0.2,0.2,0.1,0.5-0.1,0.7l-7.5,4.9C93.7,309.9,93.6,309.9,93.5,309.9
					z M108.6,300c-0.2,0-0.3-0.1-0.4-0.2c-0.2-0.2-0.1-0.5,0.1-0.7l7.5-4.9c0.2-0.2,0.5-0.1,0.7,0.1c0.2,0.2,0.1,0.5-0.1,0.7
					l-7.5,4.9C108.7,300,108.6,300,108.6,300z M123.6,290.2c-0.2,0-0.3-0.1-0.4-0.2c-0.2-0.2-0.1-0.5,0.1-0.7l7.5-4.9
					c0.2-0.2,0.5-0.1,0.7,0.1c0.2,0.2,0.1,0.5-0.1,0.7l-7.5,4.9C123.8,290.1,123.7,290.2,123.6,290.2z M138.6,280.3
					c-0.2,0-0.3-0.1-0.4-0.2c-0.2-0.2-0.1-0.5,0.1-0.7l7.5-4.9c0.2-0.2,0.5-0.1,0.7,0.1c0.2,0.2,0.1,0.5-0.1,0.7l-7.5,4.9
					C138.8,280.2,138.7,280.3,138.6,280.3z M153.7,270.4c-0.2,0-0.3-0.1-0.4-0.2c-0.2-0.2-0.1-0.5,0.1-0.7l7.5-4.9
					c0.2-0.2,0.5-0.1,0.7,0.1c0.2,0.2,0.1,0.5-0.1,0.7l-7.5,4.9C153.8,270.3,153.8,270.4,153.7,270.4z"/>
			</g>
			<g>
				<path class="st1" d="M342.9,232.9c-0.2,0-0.3-0.1-0.4-0.2c-0.2-0.2-0.1-0.5,0.1-0.7l7.5-4.9c0.2-0.2,0.5-0.1,0.7,0.1
					c0.2,0.2,0.1,0.5-0.1,0.7l-7.5,4.9C343.1,232.8,343,232.9,342.9,232.9z M358,223c-0.2,0-0.3-0.1-0.4-0.2
					c-0.2-0.2-0.1-0.5,0.1-0.7l7.5-4.9c0.2-0.2,0.5-0.1,0.7,0.1c0.2,0.2,0.1,0.5-0.1,0.7l-7.5,4.9C358.2,222.9,358.1,223,358,223z
					 M373,213.1c-0.2,0-0.3-0.1-0.4-0.2c-0.2-0.2-0.1-0.5,0.1-0.7l7.5-4.9c0.2-0.2,0.5-0.1,0.7,0.1c0.2,0.2,0.1,0.5-0.1,0.7
					l-7.5,4.9C373.2,213,373.1,213.1,373,213.1z M388,203.2c-0.2,0-0.3-0.1-0.4-0.2c-0.2-0.2-0.1-0.5,0.1-0.7l7.5-4.9
					c0.2-0.2,0.5-0.1,0.7,0.1c0.2,0.2,0.1,0.5-0.1,0.7l-7.5,4.9C388.2,203.1,388.1,203.2,388,203.2z M403.1,193.3
					c-0.2,0-0.3-0.1-0.4-0.2c-0.2-0.2-0.1-0.5,0.1-0.7l7.5-4.9c0.2-0.2,0.5-0.1,0.7,0.1c0.2,0.2,0.1,0.5-0.1,0.7l-7.5,4.9
					C403.3,193.2,403.2,193.3,403.1,193.3z M418.1,183.4c-0.2,0-0.3-0.1-0.4-0.2c-0.2-0.2-0.1-0.5,0.1-0.7l7.5-4.9
					c0.2-0.2,0.5-0.1,0.7,0.1c0.2,0.2,0.1,0.5-0.1,0.7l-7.5,4.9C418.3,183.4,418.2,183.4,418.1,183.4z M433.2,173.5
					c-0.2,0-0.3-0.1-0.4-0.2c-0.2-0.2-0.1-0.5,0.1-0.7l7.5-4.9c0.2-0.2,0.5-0.1,0.7,0.1c0.2,0.2,0.1,0.5-0.1,0.7l-7.5,4.9
					C433.3,173.5,433.2,173.5,433.2,173.5z"/>
			</g>
			<g>
				<path class="st1" d="M318.1,374.4c-0.2,0-0.3-0.1-0.4-0.2c-0.2-0.2-0.1-0.5,0.1-0.7l7.5-4.9c0.2-0.2,0.5-0.1,0.7,0.1
					c0.2,0.2,0.1,0.5-0.1,0.7l-7.5,4.9C318.3,374.4,318.2,374.4,318.1,374.4z M333.2,364.5c-0.2,0-0.3-0.1-0.4-0.2
					c-0.2-0.2-0.1-0.5,0.1-0.7l7.5-4.9c0.2-0.2,0.5-0.1,0.7,0.1c0.2,0.2,0.1,0.5-0.1,0.7l-7.5,4.9
					C333.4,364.5,333.3,364.5,333.2,364.5z M348.2,354.6c-0.2,0-0.3-0.1-0.4-0.2c-0.2-0.2-0.1-0.5,0.1-0.7l7.5-4.9
					c0.2-0.2,0.5-0.1,0.7,0.1c0.2,0.2,0.1,0.5-0.1,0.7l-7.5,4.9C348.4,354.6,348.3,354.6,348.2,354.6z M363.2,344.7
					c-0.2,0-0.3-0.1-0.4-0.2c-0.2-0.2-0.1-0.5,0.1-0.7l7.5-4.9c0.2-0.2,0.5-0.1,0.7,0.1c0.2,0.2,0.1,0.5-0.1,0.7l-7.5,4.9
					C363.4,344.7,363.3,344.7,363.2,344.7z M378.3,334.8c-0.2,0-0.3-0.1-0.4-0.2c-0.2-0.2-0.1-0.5,0.1-0.7l7.5-4.9
					c0.2-0.2,0.5-0.1,0.7,0.1c0.2,0.2,0.1,0.5-0.1,0.7l-7.5,4.9C378.5,334.8,378.4,334.8,378.3,334.8z M393.3,324.9
					c-0.2,0-0.3-0.1-0.4-0.2c-0.2-0.2-0.1-0.5,0.1-0.7l7.5-4.9c0.2-0.2,0.5-0.1,0.7,0.1c0.2,0.2,0.1,0.5-0.1,0.7l-7.5,4.9
					C393.5,324.9,393.4,324.9,393.3,324.9z M408.3,315c-0.2,0-0.3-0.1-0.4-0.2c-0.2-0.2-0.1-0.5,0.1-0.7l7.5-4.9
					c0.2-0.2,0.5-0.1,0.7,0.1c0.2,0.2,0.1,0.5-0.1,0.7l-7.5,4.9C408.5,315,408.4,315,408.3,315z M423.4,305.1
					c-0.2,0-0.3-0.1-0.4-0.2c-0.2-0.2-0.1-0.5,0.1-0.7l7.5-4.9c0.2-0.2,0.5-0.1,0.7,0.1c0.2,0.2,0.1,0.5-0.1,0.7l-7.5,4.9
					C423.6,305.1,423.5,305.1,423.4,305.1z M438.4,295.2c-0.2,0-0.3-0.1-0.4-0.2c-0.2-0.2-0.1-0.5,0.1-0.7l4.6-3
					c0.2-0.2,0.5-0.1,0.7,0.1c0.2,0.2,0.1,0.5-0.1,0.7l-4.6,3C438.6,295.2,438.5,295.2,438.4,295.2z"/>
			</g>
			<g>
				<path class="st1" d="M242.5,381.2c-0.1,0-0.2,0-0.3-0.1l-4.5-3.1c-0.2-0.2-0.3-0.5-0.1-0.7c0.2-0.2,0.5-0.3,0.7-0.1l4.5,3.1
					c0.2,0.2,0.3,0.5,0.1,0.7C242.8,381.1,242.6,381.2,242.5,381.2z M230.5,373c-0.1,0-0.2,0-0.3-0.1l-7.4-5.1
					c-0.2-0.2-0.3-0.5-0.1-0.7c0.2-0.2,0.5-0.3,0.7-0.1l7.4,5.1c0.2,0.2,0.3,0.5,0.1,0.7C230.8,372.9,230.7,373,230.5,373z
					 M215.7,362.8c-0.1,0-0.2,0-0.3-0.1l-7.4-5.1c-0.2-0.2-0.3-0.5-0.1-0.7s0.5-0.3,0.7-0.1l7.4,5.1c0.2,0.2,0.3,0.5,0.1,0.7
					C216,362.8,215.8,362.8,215.7,362.8z M200.8,352.7c-0.1,0-0.2,0-0.3-0.1l-7.4-5.1c-0.2-0.2-0.3-0.5-0.1-0.7
					c0.2-0.2,0.5-0.3,0.7-0.1l7.4,5.1c0.2,0.2,0.3,0.5,0.1,0.7C201.1,352.6,201,352.7,200.8,352.7z M186,342.5c-0.1,0-0.2,0-0.3-0.1
					l-7.4-5.1c-0.2-0.2-0.3-0.5-0.1-0.7c0.2-0.2,0.5-0.3,0.7-0.1l7.4,5.1c0.2,0.2,0.3,0.5,0.1,0.7
					C186.3,342.4,186.1,342.5,186,342.5z M171.1,332.3c-0.1,0-0.2,0-0.3-0.1l-7.4-5.1c-0.2-0.2-0.3-0.5-0.1-0.7
					c0.2-0.2,0.5-0.3,0.7-0.1l7.4,5.1c0.2,0.2,0.3,0.5,0.1,0.7C171.4,332.3,171.3,332.3,171.1,332.3z M156.3,322.2
					c-0.1,0-0.2,0-0.3-0.1l-7.4-5.1c-0.2-0.2-0.3-0.5-0.1-0.7c0.2-0.2,0.5-0.3,0.7-0.1l7.4,5.1c0.2,0.2,0.3,0.5,0.1,0.7
					C156.6,322.1,156.4,322.2,156.3,322.2z M141.4,312c-0.1,0-0.2,0-0.3-0.1l-7.4-5.1c-0.2-0.2-0.3-0.5-0.1-0.7
					c0.2-0.2,0.5-0.3,0.7-0.1l7.4,5.1c0.2,0.2,0.3,0.5,0.1,0.7C141.7,311.9,141.6,312,141.4,312z M126.6,301.8c-0.1,0-0.2,0-0.3-0.1
					l-7.4-5.1c-0.2-0.2-0.3-0.5-0.1-0.7c0.2-0.2,0.5-0.3,0.7-0.1l7.4,5.1c0.2,0.2,0.3,0.5,0.1,0.7
					C126.9,301.7,126.7,301.8,126.6,301.8z M111.7,291.6c-0.1,0-0.2,0-0.3-0.1l-7.4-5.1c-0.2-0.2-0.3-0.5-0.1-0.7
					c0.2-0.2,0.5-0.3,0.7-0.1l7.4,5.1c0.2,0.2,0.3,0.5,0.1,0.7C112,291.6,111.9,291.6,111.7,291.6z M96.9,281.5
					c-0.1,0-0.2,0-0.3-0.1l-7.4-5.1c-0.2-0.2-0.3-0.5-0.1-0.7c0.2-0.2,0.5-0.3,0.7-0.1l7.4,5.1c0.2,0.2,0.3,0.5,0.1,0.7
					C97.2,281.4,97,281.5,96.9,281.5z M82,271.3c-0.1,0-0.2,0-0.3-0.1l-7.4-5.1c-0.2-0.2-0.3-0.5-0.1-0.7c0.2-0.2,0.5-0.3,0.7-0.1
					l7.4,5.1c0.2,0.2,0.3,0.5,0.1,0.7C82.3,271.2,82.2,271.3,82,271.3z M67.2,261.1c-0.1,0-0.2,0-0.3-0.1l-7.4-5.1
					c-0.2-0.2-0.3-0.5-0.1-0.7c0.2-0.2,0.5-0.3,0.7-0.1l7.4,5.1c0.2,0.2,0.3,0.5,0.1,0.7C67.5,261.1,67.3,261.1,67.2,261.1z
					 M52.3,251c-0.1,0-0.2,0-0.3-0.1l-7.4-5.1c-0.2-0.2-0.3-0.5-0.1-0.7c0.2-0.2,0.5-0.3,0.7-0.1l7.4,5.1c0.2,0.2,0.3,0.5,0.1,0.7
					C52.6,250.9,52.5,251,52.3,251z M37.5,240.8c-0.1,0-0.2,0-0.3-0.1l-7.4-5.1c-0.2-0.2-0.3-0.5-0.1-0.7c0.2-0.2,0.5-0.3,0.7-0.1
					l7.4,5.1c0.2,0.2,0.3,0.5,0.1,0.7C37.8,240.7,37.6,240.8,37.5,240.8z"/>
			</g>
			<g>
				<path class="st1" d="M426.4,390c-0.1,0-0.2,0-0.3-0.1l-7.4-5.1c-0.2-0.2-0.3-0.5-0.1-0.7c0.2-0.2,0.5-0.3,0.7-0.1l7.4,5.1
					c0.2,0.2,0.3,0.5,0.1,0.7C426.8,389.9,426.6,390,426.4,390z M411.6,379.8c-0.1,0-0.2,0-0.3-0.1l-7.4-5.1
					c-0.2-0.2-0.3-0.5-0.1-0.7c0.2-0.2,0.5-0.3,0.7-0.1l7.4,5.1c0.2,0.2,0.3,0.5,0.1,0.7C411.9,379.7,411.8,379.8,411.6,379.8z
					 M396.7,369.6c-0.1,0-0.2,0-0.3-0.1l-7.4-5.1c-0.2-0.2-0.3-0.5-0.1-0.7c0.2-0.2,0.5-0.3,0.7-0.1l7.4,5.1
					c0.2,0.2,0.3,0.5,0.1,0.7C397.1,369.5,396.9,369.6,396.7,369.6z M381.9,359.4c-0.1,0-0.2,0-0.3-0.1l-7.4-5.1
					c-0.2-0.2-0.3-0.5-0.1-0.7c0.2-0.2,0.5-0.3,0.7-0.1l7.4,5.1c0.2,0.2,0.3,0.5,0.1,0.7C382.2,359.4,382.1,359.4,381.9,359.4z
					 M367,349.3c-0.1,0-0.2,0-0.3-0.1l-7.4-5.1c-0.2-0.2-0.3-0.5-0.1-0.7c0.2-0.2,0.5-0.3,0.7-0.1l7.4,5.1c0.2,0.2,0.3,0.5,0.1,0.7
					C367.4,349.2,367.2,349.3,367,349.3z M352.2,339.1c-0.1,0-0.2,0-0.3-0.1l-7.4-5.1c-0.2-0.2-0.3-0.5-0.1-0.7
					c0.2-0.2,0.5-0.3,0.7-0.1l7.4,5.1c0.2,0.2,0.3,0.5,0.1,0.7C352.5,339,352.4,339.1,352.2,339.1z M337.3,328.9
					c-0.1,0-0.2,0-0.3-0.1l-7.4-5.1c-0.2-0.2-0.3-0.5-0.1-0.7c0.2-0.2,0.5-0.3,0.7-0.1l7.4,5.1c0.2,0.2,0.3,0.5,0.1,0.7
					C337.7,328.9,337.5,328.9,337.3,328.9z M322.5,318.8c-0.1,0-0.2,0-0.3-0.1l-7.4-5.1c-0.2-0.2-0.3-0.5-0.1-0.7
					c0.2-0.2,0.5-0.3,0.7-0.1l7.4,5.1c0.2,0.2,0.3,0.5,0.1,0.7C322.8,318.7,322.6,318.8,322.5,318.8z M307.6,308.6
					c-0.1,0-0.2,0-0.3-0.1l-7.4-5.1c-0.2-0.2-0.3-0.5-0.1-0.7c0.2-0.2,0.5-0.3,0.7-0.1l7.4,5.1c0.2,0.2,0.3,0.5,0.1,0.7
					C308,308.5,307.8,308.6,307.6,308.6z M292.8,298.4c-0.1,0-0.2,0-0.3-0.1l-7.4-5.1c-0.2-0.2-0.3-0.5-0.1-0.7
					c0.2-0.2,0.5-0.3,0.7-0.1l7.4,5.1c0.2,0.2,0.3,0.5,0.1,0.7C293.1,298.3,292.9,298.4,292.8,298.4z"/>
			</g>
			<g>
				<path class="st1" d="M273.7,342.5c-0.1,0-0.2,0-0.3-0.1l-5.1-3.4c-0.2-0.2-0.3-0.5-0.1-0.7c0.2-0.2,0.5-0.3,0.7-0.1l5.1,3.4
					c0.2,0.2,0.3,0.5,0.1,0.7C274,342.4,273.9,342.5,273.7,342.5z M261.2,334c-0.1,0-0.2,0-0.3-0.1l-7.4-5.1
					c-0.2-0.2-0.3-0.5-0.1-0.7c0.2-0.2,0.5-0.3,0.7-0.1l7.4,5.1c0.2,0.2,0.3,0.5,0.1,0.7C261.5,333.9,261.3,334,261.2,334z
					 M246.3,323.9c-0.1,0-0.2,0-0.3-0.1l-7.4-5.1c-0.2-0.2-0.3-0.5-0.1-0.7c0.2-0.2,0.5-0.3,0.7-0.1l7.4,5.1
					c0.2,0.2,0.3,0.5,0.1,0.7C246.6,323.8,246.4,323.9,246.3,323.9z M231.4,313.8c-0.1,0-0.2,0-0.3-0.1l-7.4-5.1
					c-0.2-0.2-0.3-0.5-0.1-0.7c0.2-0.2,0.5-0.3,0.7-0.1l7.4,5.1c0.2,0.2,0.3,0.5,0.1,0.7C231.7,313.7,231.6,313.8,231.4,313.8z
					 M216.5,303.7c-0.1,0-0.2,0-0.3-0.1l-7.4-5.1c-0.2-0.2-0.3-0.5-0.1-0.7c0.2-0.2,0.5-0.3,0.7-0.1l7.4,5.1
					c0.2,0.2,0.3,0.5,0.1,0.7C216.8,303.6,216.7,303.7,216.5,303.7z M201.6,293.6c-0.1,0-0.2,0-0.3-0.1l-7.4-5.1
					c-0.2-0.2-0.3-0.5-0.1-0.7c0.2-0.2,0.5-0.3,0.7-0.1l7.4,5.1c0.2,0.2,0.3,0.5,0.1,0.7C201.9,293.5,201.8,293.6,201.6,293.6z
					 M186.7,283.5c-0.1,0-0.2,0-0.3-0.1l-7.4-5.1c-0.2-0.2-0.3-0.5-0.1-0.7c0.2-0.2,0.5-0.3,0.7-0.1l7.4,5.1
					c0.2,0.2,0.3,0.5,0.1,0.7C187,283.4,186.9,283.5,186.7,283.5z M171.8,273.4c-0.1,0-0.2,0-0.3-0.1l-7.4-5.1
					c-0.2-0.2-0.3-0.5-0.1-0.7c0.2-0.2,0.5-0.3,0.7-0.1l7.4,5.1c0.2,0.2,0.3,0.5,0.1,0.7C172.1,273.3,172,273.4,171.8,273.4z
					 M156.9,263.2c-0.1,0-0.2,0-0.3-0.1l-7.4-5.1c-0.2-0.2-0.3-0.5-0.1-0.7c0.2-0.2,0.5-0.3,0.7-0.1l7.4,5.1
					c0.2,0.2,0.3,0.5,0.1,0.7C157.2,263.2,157.1,263.2,156.9,263.2z M142,253.1c-0.1,0-0.2,0-0.3-0.1l-7.4-5.1
					c-0.2-0.2-0.3-0.5-0.1-0.7c0.2-0.2,0.5-0.3,0.7-0.1l7.4,5.1c0.2,0.2,0.3,0.5,0.1,0.7C142.3,253.1,142.2,253.1,142,253.1z
					 M127.1,243c-0.1,0-0.2,0-0.3-0.1l-7.4-5.1c-0.2-0.2-0.3-0.5-0.1-0.7c0.2-0.2,0.5-0.3,0.7-0.1l7.4,5.1c0.2,0.2,0.3,0.5,0.1,0.7
					C127.4,243,127.3,243,127.1,243z M112.2,232.9c-0.1,0-0.2,0-0.3-0.1l-7.4-5.1c-0.2-0.2-0.3-0.5-0.1-0.7c0.2-0.2,0.5-0.3,0.7-0.1
					l7.4,5.1c0.2,0.2,0.3,0.5,0.1,0.7C112.5,232.9,112.4,232.9,112.2,232.9z M97.3,222.8c-0.1,0-0.2,0-0.3-0.1l-7.4-5.1
					c-0.2-0.2-0.3-0.5-0.1-0.7c0.2-0.2,0.5-0.3,0.7-0.1l7.4,5.1c0.2,0.2,0.3,0.5,0.1,0.7C97.6,222.8,97.5,222.8,97.3,222.8z
					 M82.4,212.7c-0.1,0-0.2,0-0.3-0.1l-7.4-5.1c-0.2-0.2-0.3-0.5-0.1-0.7c0.2-0.2,0.5-0.3,0.7-0.1l7.4,5.1c0.2,0.2,0.3,0.5,0.1,0.7
					C82.7,212.6,82.6,212.7,82.4,212.7z M67.5,202.6c-0.1,0-0.2,0-0.3-0.1l-7.4-5.1c-0.2-0.2-0.3-0.5-0.1-0.7
					c0.2-0.2,0.5-0.3,0.7-0.1l7.4,5.1c0.2,0.2,0.3,0.5,0.1,0.7C67.9,202.5,67.7,202.6,67.5,202.6z M52.6,192.5c-0.1,0-0.2,0-0.3-0.1
					l-7.4-5.1c-0.2-0.2-0.3-0.5-0.1-0.7c0.2-0.2,0.5-0.3,0.7-0.1l7.4,5.1c0.2,0.2,0.3,0.5,0.1,0.7C53,192.4,52.8,192.5,52.6,192.5z
					 M37.7,182.4c-0.1,0-0.2,0-0.3-0.1l-7.4-5.1c-0.2-0.2-0.3-0.5-0.1-0.7c0.2-0.2,0.5-0.3,0.7-0.1l7.4,5.1c0.2,0.2,0.3,0.5,0.1,0.7
					C38.1,182.3,37.9,182.4,37.7,182.4z M22.8,172.3c-0.1,0-0.2,0-0.3-0.1l-7.4-5.1c-0.2-0.2-0.3-0.5-0.1-0.7
					c0.2-0.2,0.5-0.3,0.7-0.1l7.4,5.1c0.2,0.2,0.3,0.5,0.1,0.7C23.2,172.2,23,172.3,22.8,172.3z M7.9,162.2c-0.1,0-0.2,0-0.3-0.1
					l-7.4-5.1c-0.2-0.2-0.3-0.5-0.1-0.7c0.2-0.2,0.5-0.3,0.7-0.1l7.4,5.1c0.2,0.2,0.3,0.5,0.1,0.7C8.3,162.1,8.1,162.2,7.9,162.2z"
					/>
			</g>
			<g>
				<path class="st1" d="M118.5,224.8c-0.2,0-0.3-0.1-0.4-0.2c-0.2-0.2-0.1-0.5,0.1-0.7l7.5-4.9c0.2-0.2,0.5-0.1,0.7,0.1
					c0.2,0.2,0.1,0.5-0.1,0.7l-7.5,4.9C118.7,224.7,118.6,224.8,118.5,224.8z M133.6,214.9c-0.2,0-0.3-0.1-0.4-0.2
					c-0.2-0.2-0.1-0.5,0.1-0.7l7.5-4.9c0.2-0.2,0.5-0.1,0.7,0.1c0.2,0.2,0.1,0.5-0.1,0.7l-7.5,4.9
					C133.8,214.8,133.7,214.9,133.6,214.9z M148.6,205c-0.2,0-0.3-0.1-0.4-0.2c-0.2-0.2-0.1-0.5,0.1-0.7l7.5-4.9
					c0.2-0.2,0.5-0.1,0.7,0.1c0.2,0.2,0.1,0.5-0.1,0.7l-7.5,4.9C148.8,204.9,148.7,205,148.6,205z M163.7,195.1
					c-0.2,0-0.3-0.1-0.4-0.2c-0.2-0.2-0.1-0.5,0.1-0.7l7.5-4.9c0.2-0.2,0.5-0.1,0.7,0.1c0.2,0.2,0.1,0.5-0.1,0.7l-7.5,4.9
					C163.8,195,163.7,195.1,163.7,195.1z M178.7,185.2c-0.2,0-0.3-0.1-0.4-0.2c-0.2-0.2-0.1-0.5,0.1-0.7l7.5-4.9
					c0.2-0.2,0.5-0.1,0.7,0.1c0.2,0.2,0.1,0.5-0.1,0.7l-7.5,4.9C178.9,185.1,178.8,185.2,178.7,185.2z M193.7,175.3
					c-0.2,0-0.3-0.1-0.4-0.2c-0.2-0.2-0.1-0.5,0.1-0.7l7.5-4.9c0.2-0.2,0.5-0.1,0.7,0.1c0.2,0.2,0.1,0.5-0.1,0.7l-7.5,4.9
					C193.9,175.3,193.8,175.3,193.7,175.3z M208.8,165.4c-0.2,0-0.3-0.1-0.4-0.2c-0.2-0.2-0.1-0.5,0.1-0.7l7.5-4.9
					c0.2-0.2,0.5-0.1,0.7,0.1c0.2,0.2,0.1,0.5-0.1,0.7l-7.5,4.9C209,165.4,208.9,165.4,208.8,165.4z M223.8,155.5
					c-0.2,0-0.3-0.1-0.4-0.2c-0.2-0.2-0.1-0.5,0.1-0.7l7.5-4.9c0.2-0.2,0.5-0.1,0.7,0.1c0.2,0.2,0.1,0.5-0.1,0.7l-7.5,4.9
					C224,155.5,223.9,155.5,223.8,155.5z M238.8,145.6c-0.2,0-0.3-0.1-0.4-0.2c-0.2-0.2-0.1-0.5,0.1-0.7l7.5-4.9
					c0.2-0.2,0.5-0.1,0.7,0.1c0.2,0.2,0.1,0.5-0.1,0.7l-7.5,4.9C239,145.6,238.9,145.6,238.8,145.6z M253.9,135.7
					c-0.2,0-0.3-0.1-0.4-0.2c-0.2-0.2-0.1-0.5,0.1-0.7l7.5-4.9c0.2-0.2,0.5-0.1,0.7,0.1c0.2,0.2,0.1,0.5-0.1,0.7l-7.5,4.9
					C254.1,135.7,254,135.7,253.9,135.7z M268.9,125.8c-0.2,0-0.3-0.1-0.4-0.2c-0.2-0.2-0.1-0.5,0.1-0.7l7.5-4.9
					c0.2-0.2,0.5-0.1,0.7,0.1c0.2,0.2,0.1,0.5-0.1,0.7l-7.5,4.9C269.1,125.8,269,125.8,268.9,125.8z M283.9,115.9
					c-0.2,0-0.3-0.1-0.4-0.2c-0.2-0.2-0.1-0.5,0.1-0.7l7.5-4.9c0.2-0.2,0.5-0.1,0.7,0.1c0.2,0.2,0.1,0.5-0.1,0.7l-7.5,4.9
					C284.1,115.9,284,115.9,283.9,115.9z M299,106c-0.2,0-0.3-0.1-0.4-0.2c-0.2-0.2-0.1-0.5,0.1-0.7l7.5-4.9
					c0.2-0.2,0.5-0.1,0.7,0.1c0.2,0.2,0.1,0.5-0.1,0.7l-7.5,4.9C299.2,106,299.1,106,299,106z M314,96.1c-0.2,0-0.3-0.1-0.4-0.2
					c-0.2-0.2-0.1-0.5,0.1-0.7l7.5-4.9c0.2-0.2,0.5-0.1,0.7,0.1c0.2,0.2,0.1,0.5-0.1,0.7l-7.5,4.9C314.2,96.1,314.1,96.1,314,96.1z
					 M329,86.2c-0.2,0-0.3-0.1-0.4-0.2c-0.2-0.2-0.1-0.5,0.1-0.7l7.5-4.9c0.2-0.2,0.5-0.1,0.7,0.1c0.2,0.2,0.1,0.5-0.1,0.7l-7.5,4.9
					C329.2,86.2,329.1,86.2,329,86.2z M344.1,76.3c-0.2,0-0.3-0.1-0.4-0.2c-0.2-0.2-0.1-0.5,0.1-0.7l7.5-4.9
					c0.2-0.2,0.5-0.1,0.7,0.1c0.2,0.2,0.1,0.5-0.1,0.7l-7.5,4.9C344.3,76.3,344.2,76.3,344.1,76.3z M359.1,66.4
					c-0.2,0-0.3-0.1-0.4-0.2c-0.2-0.2-0.1-0.5,0.1-0.7l7.5-4.9c0.2-0.2,0.5-0.1,0.7,0.1c0.2,0.2,0.1,0.5-0.1,0.7l-7.5,4.9
					C359.3,66.4,359.2,66.4,359.1,66.4z"/>
			</g>
		</g>
	</g>
	<g class="st4">
		<path class="st5" d="M174.7,270.9c-2.1,0-4,0.5-5.4,1.5c-1.3,0.9-2,2-2,3.2c0,1.2,0.8,2.4,2.2,3.4c1.6,1.1,3.7,1.7,5.9,1.8
			c2.2,0.1,4.3-0.5,5.8-1.5c1.3-0.9,2-2,2-3.2c0-1.2-0.8-2.4-2.2-3.4c-1.6-1.1-3.7-1.7-5.9-1.8C174.9,270.9,174.8,270.9,174.7,270.9
			z"/>
	</g>
	<g class="st6">
		<path class="st5" d="M315.3,283.8c3.5,2.4,5.6,3.8,5.7,3.9c9.5,6.4,21.8,9.9,34.1,10.2c12.3,0.3,24.4-2.5,33.7-8.5
			c9.2-6,13.7-14,13.5-22.2c-0.2-8.1-5.1-16.4-14.6-22.9c-1.1-0.7-2.2-1.4-3.3-2l-1.3-0.7l1.2-0.7c0.5-0.3,1-0.5,1.3-0.8
			c17.2-11.2,25.6-26.2,25.2-41.4c-0.4-15.2-9.4-30.6-27.2-42.7c-29.4-20-73.3-24.3-107.1-12.5l-1.4,0.5l-0.7-1
			c-3.1-4.2-7.2-8.2-12.4-11.8c-12.5-8.5-28.7-12.9-44.8-13.3c-16.1-0.4-32.1,3.3-44.2,11.1c-12.1,7.9-17.8,18.2-17.4,28.9
			c0.2,4.6,1.4,9.2,3.8,13.6c2.8,5.4,7.1,9.9,12.1,13.4L315.3,283.8z"/>
	</g>
	<g class="st4">
		<path class="st5" d="M277.1,305.9c-3.6,2.3-8.4,3.4-13.2,3.3c-4.8-0.1-9.6-1.5-13.4-4l-118.1-80.1c-3.7-2.5-5.6-5.8-5.7-9
			c-0.1-3.2,1.7-6.3,5.3-8.7c3.6-2.3,8.4-3.4,13.2-3.3c4.8,0.1,9.6,1.5,13.4,4l118.1,80.1c3.7,2.5,5.6,5.8,5.7,9
			C282.5,300.5,280.7,303.6,277.1,305.9z"/>
	</g>
	<g class="st4">
		<path class="st5" d="M312.1,283.3c-3.6,2.3-8.4,3.4-13.2,3.3c-4.8-0.1-9.6-1.5-13.4-4l-118.1-80.1c-3.7-2.5-5.6-5.8-5.7-9
			c-0.1-3.2,1.7-6.3,5.3-8.7c3.6-2.3,8.4-3.4,13.2-3.3c4.8,0.1,9.6,1.5,13.4,4l118.1,80.1c3.7,2.5,5.6,5.8,5.7,9
			C317.4,277.9,315.7,281,312.1,283.3z"/>
	</g>
	<g class="st4">
		<path class="st5" d="M347.4,260.8c-3.6,2.3-8.4,3.4-13.2,3.3c-4.8-0.1-9.6-1.5-13.4-4L202.8,180c-3.7-2.5-5.6-5.8-5.7-9
			c-0.1-3.2,1.7-6.3,5.3-8.7c3.6-2.3,8.4-3.4,13.2-3.3c4.8,0.1,9.6,1.5,13.4,4L347,243.1c3.7,2.5,5.6,5.8,5.7,9
			C352.8,255.3,351,258.4,347.4,260.8z"/>
	</g>
	<g>
		<g>
			<path class="st7" d="M222.5,171.1c-1.8,0-3.4,0.4-4.6,1.2c-1.1,0.7-1.7,1.7-1.7,2.6c0,1,0.7,2,1.9,2.8c1.3,0.9,3.1,1.4,5,1.5
				c1.9,0,3.6-0.4,4.9-1.2c1.1-0.7,1.7-1.7,1.7-2.6c0-1-0.7-2-1.9-2.8c-1.3-0.9-3.1-1.4-5-1.5C222.7,171.1,222.6,171.1,222.5,171.1z
				"/>
		</g>
		<g>
			<path class="st7" d="M187,193.9c-1.8,0-3.4,0.4-4.6,1.2c-1.1,0.7-1.7,1.7-1.7,2.6c0,1,0.7,2,1.9,2.8c1.3,0.9,3.1,1.4,5,1.5
				c1.9,0,3.6-0.4,4.9-1.2c1.1-0.7,1.7-1.7,1.7-2.6c0-1-0.7-2-1.9-2.8c-1.3-0.9-3.1-1.4-5-1.5C187.2,193.9,187.1,193.9,187,193.9z"
				/>
		</g>
		<g>
			<path class="st7" d="M152.3,218.2c-1.8,0-3.4,0.4-4.6,1.2c-1.1,0.7-1.7,1.7-1.7,2.6c0,1,0.7,2,1.9,2.8c1.3,0.9,3.1,1.4,5,1.5
				c1.9,0,3.6-0.4,4.9-1.2c1.1-0.7,1.7-1.7,1.7-2.6c0-1-0.7-2-1.9-2.8c-1.3-0.9-3.1-1.4-5-1.5C152.5,218.2,152.4,218.2,152.3,218.2z
				"/>
		</g>
	</g>
	<g>
		<g>
			<g>
				<g>
					<path class="st8" d="M349,221.4l-118.1-80.1c-8.6-5.9-22.4-6.2-30.8-0.8s-8.2,14.6,0.5,20.4L318.7,241
						c8.6,5.9,22.4,6.2,30.8,0.8C357.9,236.4,357.7,227.2,349,221.4z M347.3,240.3c-3.6,2.3-8.4,3.4-13.2,3.3
						c-4.8-0.1-9.6-1.5-13.4-4l-118.1-80.1c-3.7-2.5-5.6-5.8-5.7-9c-0.1-3.2,1.7-6.3,5.3-8.7s8.4-3.4,13.2-3.3
						c4.8,0.1,9.6,1.5,13.4,4l118.1,80.1c3.7,2.5,5.6,5.8,5.7,9C352.7,234.9,351,238,347.3,240.3z"/>
				</g>
				<g>
					<path class="st8" d="M389.8,223.2c-0.7-0.5-1.4-0.9-2.1-1.5c35.5-23.1,34.6-62-2-86.8c-30-20.4-74.6-25-109.3-13.4
						c-3.1-4.1-7.2-7.9-12.3-11.4c-26.1-17.7-67.9-18.8-93.2-2.3c-12.7,8.2-18.6,19.2-18.2,30.3c0.3,8.7,4.4,17.5,12.3,25.2
						c0,0,0.1-0.1,0.1-0.1c-0.1,0.1-0.2,0.1-0.3,0.2c-8.2,5.4-8,14.5,0.6,20.4l118.1,80.1c8.3,5.6,21.2,6.2,29.6,1.5v0
						c3.5,2.4,5.6,3.8,5.7,3.9c20.2,13.7,52.4,14.5,72,1.8C410.5,258.3,410,236.9,389.8,223.2z M313.1,262.5
						c-0.3,0.2-0.6,0.5-0.9,0.7c-0.4,0.2-0.8,0.5-1.2,0.7c-3.4,1.9-7.7,2.7-12,2.6c-4.8-0.1-9.6-1.5-13.4-4l-118.1-80.1
						c-3.7-2.5-5.6-5.8-5.7-9c-0.1-3,1.5-6,4.8-8.3c0.2-0.1,0.3-0.2,0.5-0.3c0.5-0.3,1.1-0.7,1.7-1c3.3-1.7,7.4-2.5,11.5-2.4
						c4.8,0.1,9.6,1.5,13.4,4l118.1,80.1c3.7,2.5,5.6,5.8,5.7,9C317.5,257.4,316.1,260.3,313.1,262.5z M388.8,269.6
						c-9.2,6-21.4,8.8-33.7,8.5c-12.3-0.3-24.6-3.7-34.1-10.2c-0.1-0.1-2.2-1.5-5.7-3.9c7.4-5.5,6.9-14.2-1.4-19.8l-118.1-80.1
						c-7.9-5.4-20.3-6.1-28.7-2c0,0,0,0,0,0c0,0,0,0,0,0c-7.3-7.4-11.2-15.7-11.4-23.9c-0.3-10.6,5.3-21,17.4-28.9
						c12.1-7.9,28.1-11.5,44.2-11.1c16.1,0.4,32.3,4.9,44.8,13.3c5.2,3.6,9.3,7.6,12.4,11.8l0.7,1l1.4-0.5
						c33.8-11.8,77.7-7.5,107.1,12.5c17.7,12,26.8,27.4,27.2,42.7c0.3,15.2-8,30.2-25.2,41.4c-0.3,0.2-0.8,0.4-1.3,0.8l-1.2,0.7
						l1.3,0.7c1.1,0.6,2.2,1.3,3.3,2c9.5,6.4,14.4,14.7,14.6,22.9C402.5,255.6,398,263.6,388.8,269.6z"/>
				</g>
			</g>
			<g class="st9">
				<g>
					<path class="st8" d="M166.6,260l-6.1,4l-51.8-35.1c-0.6-0.4-1.5-0.4-2.1-0.1c-0.6,0.4-0.6,1,0,1.4l105.7,71.7
						c0.6,0.4,1.5,0.4,2.1,0.1c0.6-0.4,0.6-1,0-1.4l-51.8-35.1l6.1-4l0,0c4.4,2.3,10.5,2.2,14.4-0.3s4.1-6.6,0.8-9.6l6.6-4.3
						l58,39.3c8.6,5.9,22.4,6.2,30.8,0.8c8.4-5.4,8.2-14.6-0.5-20.4l-118.1-80.1c-8.6-5.9-22.4-6.2-30.8-0.8
						c-8.4,5.4-8.2,14.6,0.5,20.4l58,39.3l-6.6,4.3c0,0,0,0,0,0c-4.4-2.3-10.5-2.2-14.4,0.3C163.4,253,163.2,257.1,166.6,260
						 M181,259.7c-1.6,1-3.6,1.5-5.6,1.4c-2.1,0-4.1-0.6-5.7-1.7c-1.6-1.1-2.4-2.5-2.4-3.8c0-1.4,0.7-2.7,2.3-3.7
						c1.5-1,3.6-1.5,5.6-1.4c2.1,0,4.1,0.6,5.7,1.7c1.6,1.1,2.4,2.5,2.4,3.8C183.3,257.4,182.5,258.7,181,259.7z M277.1,285.9
						c-3.6,2.3-8.4,3.4-13.2,3.3c-4.8-0.1-9.6-1.5-13.4-4l-118.1-80.1c-3.7-2.5-5.6-5.8-5.7-9c-0.1-3.2,1.7-6.3,5.3-8.7
						c3.6-2.3,8.4-3.4,13.2-3.3c4.8,0.1,9.6,1.5,13.4,4l118.1,80.1c3.7,2.5,5.6,5.8,5.7,9C282.5,280.5,280.7,283.6,277.1,285.9z"/>
				</g>
			</g>
		</g>
		<g>
			<g>
				<path class="st8" d="M153.2,208.6c-0.1,0-0.2,0-0.4,0c-2.4-0.1-4.6-0.7-6.4-1.9c-1.9-1.3-2.9-3-3-4.8c-0.1-1.8,1-3.6,2.8-4.8
					c1.7-1.1,4-1.7,6.3-1.6c2.4,0.1,4.6,0.7,6.4,1.9c1.9,1.3,2.9,3,3,4.8c0.1,1.9-0.9,3.6-2.8,4.8l0,0
					C157.6,208,155.5,208.6,153.2,208.6z M152.3,197.9c-1.8,0-3.4,0.4-4.6,1.2c-1.1,0.7-1.7,1.7-1.7,2.6c0,1,0.7,2,1.9,2.8
					c1.3,0.9,3.1,1.4,5,1.5c1.9,0,3.6-0.4,4.9-1.2c1.1-0.7,1.7-1.7,1.7-2.6c0-1-0.7-2-1.9-2.8c-1.3-0.9-3.1-1.4-5-1.5
					C152.5,197.9,152.4,197.9,152.3,197.9z"/>
			</g>
		</g>
		<g>
			<g>
				<path class="st8" d="M188,184.4c-0.1,0-0.2,0-0.4,0c-2.4-0.1-4.6-0.7-6.4-1.9c-1.9-1.3-2.9-3-3-4.8c-0.1-1.8,1-3.6,2.8-4.8
					c1.7-1.1,4-1.7,6.3-1.6c2.4,0.1,4.6,0.7,6.4,1.9c1.9,1.3,2.9,3,3,4.8c0.1,1.9-0.9,3.6-2.8,4.8l0,0
					C192.4,183.9,190.3,184.4,188,184.4z M187.1,173.8c-1.8,0-3.4,0.4-4.6,1.2c-1.1,0.7-1.7,1.7-1.7,2.6c0,1,0.7,2,1.9,2.8
					c1.3,0.9,3.1,1.4,5,1.5c1.9,0,3.6-0.4,4.9-1.2c1.1-0.7,1.7-1.7,1.7-2.6c0-1-0.7-2-1.9-2.8c-1.3-0.9-3.1-1.4-5-1.5
					C187.3,173.8,187.2,173.8,187.1,173.8z"/>
			</g>
		</g>
		<g>
			<g>
				<path class="st8" d="M223.4,161.7c-0.1,0-0.2,0-0.4,0c-2.4-0.1-4.6-0.7-6.4-1.9c-1.9-1.3-2.9-3-3-4.8c-0.1-1.8,1-3.6,2.8-4.8
					c1.7-1.1,4-1.7,6.3-1.6c2.4,0.1,4.6,0.7,6.4,1.9c1.9,1.3,2.9,3,3,4.8c0.1,1.9-0.9,3.6-2.8,4.8l0,0
					C227.7,161.2,225.6,161.7,223.4,161.7z M222.5,151.1c-1.8,0-3.4,0.4-4.6,1.2c-1.1,0.7-1.7,1.7-1.7,2.6c0,1,0.7,2,1.9,2.8
					c1.3,0.9,3.1,1.4,5,1.5c1.9,0,3.6-0.4,4.9-1.2c1.1-0.7,1.7-1.7,1.7-2.6c0-1-0.7-2-1.9-2.8c-1.3-0.9-3.1-1.4-5-1.5
					C222.7,151.1,222.6,151.1,222.5,151.1z"/>
			</g>
		</g>
	</g>
	<g>
		<path class="st3" d="M403.7,148.7c-0.6,0-1-0.4-1-1v-9c0-0.6,0.4-1,1-1s1,0.4,1,1v9C404.7,148.2,404.2,148.7,403.7,148.7z
			 M403.7,130.7c-0.6,0-1-0.4-1-1v-9c0-0.6,0.4-1,1-1s1,0.4,1,1v9C404.7,130.2,404.2,130.7,403.7,130.7z M403.7,112.7
			c-0.6,0-1-0.4-1-1v-9c0-0.6,0.4-1,1-1s1,0.4,1,1v9C404.7,112.2,404.2,112.7,403.7,112.7z M403.7,94.7c-0.6,0-1-0.4-1-1v-9
			c0-0.6,0.4-1,1-1s1,0.4,1,1v9C404.7,94.2,404.2,94.7,403.7,94.7z M403.7,76.7c-0.6,0-1-0.4-1-1v-9c0-0.6,0.4-1,1-1s1,0.4,1,1v9
			C404.7,76.2,404.2,76.7,403.7,76.7z M403.7,58.7c-0.6,0-1-0.4-1-1v-9c0-0.6,0.4-1,1-1s1,0.4,1,1v9
			C404.7,58.2,404.2,58.7,403.7,58.7z M403.7,40.7c-0.6,0-1-0.4-1-1v-9c0-0.6,0.4-1,1-1s1,0.4,1,1v9
			C404.7,40.2,404.2,40.7,403.7,40.7z M403.7,22.7c-0.6,0-1-0.4-1-1v-9c0-0.6,0.4-1,1-1s1,0.4,1,1v9
			C404.7,22.2,404.2,22.7,403.7,22.7z"/>
	</g>
	<g>
		<polygon class="st7" points="209,92.4 209,103.7 174.2,112.3 168.9,107.8 178.6,102.2 196.2,93.8 		"/>
	</g>
	<g>
		<g>
			<path class="st8" d="M96.1,183c-0.2,0-0.4-0.1-0.6-0.2l-18.2-12.2c-0.5-0.3-0.6-0.9-0.3-1.4c0.3-0.5,0.9-0.6,1.4-0.3l18.2,12.2
				c0.5,0.3,0.6,0.9,0.3,1.4C96.7,182.8,96.4,183,96.1,183z"/>
		</g>
		<g>
			<path class="st8" d="M96.1,173.2c-0.2,0-0.4-0.1-0.6-0.2l-18.2-12.2c-0.5-0.3-0.6-0.9-0.3-1.4c0.3-0.5,0.9-0.6,1.4-0.3l18.2,12.2
				c0.5,0.3,0.6,0.9,0.3,1.4C96.7,173,96.4,173.2,96.1,173.2z"/>
		</g>
		<g>
			<path class="st8" d="M96.1,163.4c-0.2,0-0.4-0.1-0.6-0.2l-18.2-12.2c-0.5-0.3-0.6-0.9-0.3-1.4c0.3-0.5,0.9-0.6,1.4-0.3l18.2,12.2
				c0.5,0.3,0.6,0.9,0.3,1.4C96.7,163.2,96.4,163.4,96.1,163.4z"/>
		</g>
	</g>
	<g>
		<g>
			<path class="st8" d="M224.3,85.8c-0.2,0-0.4-0.1-0.5-0.2L211.9,78c-0.5-0.3-0.6-0.9-0.3-1.4c0.3-0.5,0.9-0.6,1.4-0.3l11.8,7.6
				c0.5,0.3,0.6,0.9,0.3,1.4C224.9,85.6,224.6,85.8,224.3,85.8z"/>
		</g>
		<g>
			<path class="st8" d="M232.3,80.8c-0.2,0-0.4-0.1-0.6-0.2l-19.9-13.4c-0.5-0.3-0.6-0.9-0.3-1.4c0.3-0.5,0.9-0.6,1.4-0.3L232.9,79
				c0.5,0.3,0.6,0.9,0.3,1.4C232.9,80.6,232.6,80.8,232.3,80.8z"/>
		</g>
		<g>
			<path class="st8" d="M223.8,64.1c-0.2,0-0.4-0.1-0.5-0.2l-11.4-7.4c-0.5-0.3-0.6-0.9-0.3-1.4c0.3-0.5,0.9-0.6,1.4-0.3l11.4,7.4
				c0.5,0.3,0.6,0.9,0.3,1.4C224.5,63.9,224.2,64.1,223.8,64.1z"/>
		</g>
	</g>
	<g>
		<g>
			<g>
				<g>
					<path class="st8" d="M246.4,356.7c0,1.3,0.1,2.3,0.4,3.1c0.3,0.8,0.6,1.6,1.1,2.5c0.2,0.3,0.2,0.6,0.2,0.8c0,0.3-0.2,0.7-0.7,1
						l-2.2,1.5c-0.3,0.2-0.6,0.3-0.9,0.3c-0.3,0-0.7-0.2-1-0.5c-0.5-0.5-0.9-1.1-1.3-1.6c-0.3-0.6-0.7-1.3-1.1-2.1
						c-2.7,3.2-6.1,4.8-10.3,4.8c-2.9,0-5.3-0.8-7-2.5c-1.7-1.7-2.6-3.9-2.6-6.7c0-3,1-5.4,3.2-7.2c2.1-1.8,5-2.7,8.5-2.7
						c1.2,0,2.4,0.1,3.7,0.3c1.3,0.2,2.6,0.5,4,0.8V346c0-2.7-0.6-4.5-1.6-5.6c-1.1-1.1-3-1.6-5.7-1.6c-1.2,0-2.5,0.1-3.8,0.5
						s-2.5,0.7-3.8,1.2c-0.6,0.2-1,0.4-1.2,0.5s-0.4,0.1-0.6,0.1c-0.5,0-0.7-0.3-0.7-1.1v-1.7c0-0.6,0.1-1,0.2-1.2
						c0.2-0.2,0.5-0.5,1-0.7c1.2-0.6,2.7-1.2,4.4-1.6c1.7-0.5,3.5-0.7,5.4-0.7c4.2,0,7.2,0.9,9.1,2.8c1.9,1.9,2.9,4.7,2.9,8.6
						L246.4,356.7L246.4,356.7z M232.2,362c1.2,0,2.3-0.2,3.6-0.6c1.3-0.4,2.4-1.2,3.3-2.2c0.6-0.7,1-1.4,1.2-2.2s0.3-1.8,0.3-3
						v-1.5c-1-0.2-2.1-0.5-3.2-0.6c-1.1-0.1-2.2-0.2-3.3-0.2c-2.3,0-4,0.5-5.2,1.4c-1.2,0.9-1.7,2.3-1.7,4c0,1.6,0.4,2.9,1.3,3.7
						C229.4,361.6,230.6,362,232.2,362z M260.2,365.8c-0.6,0-1-0.1-1.3-0.3c-0.3-0.2-0.5-0.7-0.7-1.4l-8.2-27
						c-0.2-0.7-0.3-1.2-0.3-1.4c0-0.6,0.3-0.9,0.8-0.9h3.4c0.7,0,1.1,0.1,1.4,0.3c0.3,0.2,0.5,0.7,0.7,1.4l5.9,23.1l5.4-23.1
						c0.2-0.7,0.4-1.2,0.7-1.4c0.3-0.2,0.8-0.3,1.4-0.3h2.8c0.7,0,1.1,0.1,1.4,0.3c0.3,0.2,0.5,0.7,0.7,1.4l5.5,23.4l6-23.4
						c0.2-0.7,0.5-1.2,0.7-1.4c0.3-0.2,0.7-0.3,1.4-0.3h3.2c0.6,0,0.9,0.3,0.9,0.9c0,0.2,0,0.3-0.1,0.6c0,0.2-0.1,0.5-0.2,0.9
						l-8.4,27c-0.2,0.7-0.5,1.2-0.7,1.4c-0.3,0.2-0.7,0.3-1.3,0.3h-3c-0.7,0-1.1-0.1-1.4-0.3c-0.3-0.2-0.5-0.7-0.7-1.4l-5.4-22.5
						l-5.4,22.5c-0.2,0.7-0.4,1.2-0.7,1.4s-0.8,0.3-1.4,0.3H260.2z M305.1,366.7c-1.8,0-3.6-0.2-5.4-0.6c-1.7-0.4-3.1-0.9-4-1.4
						c-0.6-0.3-0.9-0.7-1.1-1c-0.1-0.3-0.2-0.7-0.2-1v-1.8c0-0.7,0.3-1.1,0.8-1.1c0.2,0,0.4,0,0.6,0.1c0.2,0.1,0.5,0.2,0.9,0.3
						c1.2,0.5,2.5,0.9,3.8,1.2c1.4,0.3,2.8,0.4,4.2,0.4c2.2,0,3.9-0.4,5.1-1.2s1.8-1.9,1.8-3.3c0-1-0.3-1.8-0.9-2.4
						s-1.8-1.3-3.5-1.8l-5.1-1.6c-2.5-0.8-4.4-2-5.6-3.6c-1.2-1.5-1.7-3.2-1.7-5.1c0-1.5,0.3-2.8,0.9-3.9c0.6-1.1,1.5-2.1,2.5-2.9
						c1-0.8,2.2-1.4,3.6-1.8c1.4-0.4,2.9-0.6,4.4-0.6c0.8,0,1.6,0,2.3,0.1c0.8,0.1,1.5,0.2,2.3,0.4c0.7,0.2,1.4,0.3,2,0.6
						c0.6,0.2,1.1,0.4,1.5,0.6c0.5,0.3,0.8,0.6,1,0.9c0.2,0.3,0.3,0.7,0.3,1.2v1.6c0,0.7-0.3,1.1-0.8,1.1c-0.3,0-0.7-0.1-1.3-0.4
						c-2-0.9-4.2-1.4-6.7-1.4c-2,0-3.6,0.3-4.6,1s-1.6,1.7-1.6,3.1c0,1,0.3,1.8,1,2.5c0.7,0.7,2,1.3,3.8,1.9l5,1.6
						c2.5,0.8,4.3,1.9,5.4,3.3c1.1,1.4,1.6,3.1,1.6,4.9c0,1.5-0.3,2.9-0.9,4c-0.6,1.2-1.5,2.2-2.5,3.1c-1.1,0.9-2.4,1.5-3.9,2
						C308.5,366.5,306.8,366.7,305.1,366.7z"/>
				</g>
			</g>
			<g>
				<g>
					<path class="st10" d="M311.7,383.7c-11.5,8.5-28.1,13-42.5,13c-20.1,0-38.2-7.4-51.9-19.8c-1.1-1-0.1-2.3,1.2-1.5
						c14.8,8.6,33,13.8,51.9,13.8c12.7,0,26.7-2.7,39.6-8.1C311.9,380.1,313.5,382.3,311.7,383.7z M316.4,378.2
						c-1.5-1.9-9.7-0.9-13.4-0.5c-1.1,0.1-1.3-0.8-0.3-1.6c6.6-4.6,17.3-3.3,18.6-1.7c1.3,1.6-0.3,12.3-6.5,17.5
						c-0.9,0.8-1.8,0.4-1.4-0.7C314.8,387.8,317.9,380.1,316.4,378.2z"/>
				</g>
			</g>
		</g>
	</g>
	<g>
		<path class="st3" d="M160.1,312.3c-0.6,0-1-0.4-1-1v-9c0-0.6,0.4-1,1-1s1,0.4,1,1v9C161.1,311.8,160.7,312.3,160.1,312.3z
			 M160.1,294.3c-0.6,0-1-0.4-1-1v-9c0-0.6,0.4-1,1-1s1,0.4,1,1v9C161.1,293.8,160.7,294.3,160.1,294.3z M160.1,276.3
			c-0.6,0-1-0.4-1-1v-4.6c0-0.6,0.4-1,1-1s1,0.4,1,1v4.6C161.1,275.8,160.7,276.3,160.1,276.3z"/>
	</g>
	<g class="st6">
		
			<ellipse transform="matrix(0.9033 -0.4289 0.4289 0.9033 -10.0525 88.0783)" class="st11" cx="190.4" cy="66.3" rx="20" ry="34.9"/>
	</g>
	<g>
		<g>
			<path class="st8" d="M190.2,110.5c-3.2,0-6.7-1-10.2-3.1c-13.2-7.6-24-27.4-24-44.2c0-8.7,3-15.4,8.2-18.4
				c4.6-2.7,10.6-2.2,16.8,1.4c13.2,7.6,24,27.4,24,44.2c0,8.7-3,15.4-8.2,18.4C194.8,109.9,192.5,110.5,190.2,110.5z M170.7,45.1
				c-2,0-3.9,0.5-5.6,1.4c-4.6,2.6-7.2,8.7-7.2,16.7c0,16.1,10.3,35.1,23,42.4c5.5,3.2,10.8,3.7,14.8,1.4c4.6-2.6,7.2-8.7,7.2-16.7
				c0-16.1-10.3-35.1-23-42.4C176.7,46,173.6,45.1,170.7,45.1z"/>
		</g>
		<g>
			<path class="st8" d="M198,106.6c-0.3,0-0.7-0.2-0.9-0.5l-17.5-28.8c-0.1-0.2-0.1-0.3-0.1-0.5V47c0-0.6,0.4-1,1-1s1,0.4,1,1v29.5
				l17.4,28.6c0.3,0.5,0.1,1.1-0.3,1.4C198.3,106.6,198.1,106.6,198,106.6z"/>
		</g>
	</g>
	<g class="st6">
		<path class="st11" d="M354.4,8.3v68.8c0,2,1,4,2.7,5.1l40.7,27.8c1.3,0.9,3,0,3-1.6V57.3c0-1.4-0.3-2.8-0.9-4.1L389.6,30
			c-0.8-1.8-2.1-3.3-3.7-4.3L357.4,6.7C356.1,5.9,354.4,6.8,354.4,8.3z"/>
	</g>
	<g>
		<g>
			<g>
				<g>
					<path class="st8" d="M388.3,120.8c-0.6,0-1.2-0.2-1.8-0.6l0,0l-39.3-27.3c-2.9-2-4.6-5.3-4.6-8.8V18.6c0-1.2,0.6-2.2,1.7-2.7
						c1-0.5,2.3-0.5,3.2,0.2l27,18.8c0.3,0.2,0.4,0.5,0.4,0.8l0,17.4c0,1.5,0.7,2.8,1.9,3.7l14.2,9.9c0.3,0.2,0.4,0.5,0.4,0.8v50.3
						c0,1.2-0.6,2.2-1.7,2.7C389.3,120.7,388.8,120.8,388.3,120.8z M387.7,118.6c0.3,0.2,0.8,0.3,1.1,0.1c0.4-0.2,0.6-0.6,0.6-1
						V67.9l-13.7-9.6c-1.7-1.2-2.8-3.2-2.8-5.3l0-16.8l-26.6-18.5c-0.3-0.2-0.8-0.3-1.1-0.1c-0.4,0.2-0.6,0.6-0.6,1v65.5
						c0,2.9,1.4,5.6,3.8,7.2L387.7,118.6z"/>
				</g>
				<g>
					<path class="st8" d="M390.5,68.4c-0.4,0-0.7-0.2-0.9-0.5l-16.5-31.7c-0.3-0.5-0.1-1.1,0.4-1.3c0.5-0.3,1.1-0.1,1.3,0.4
						l16.5,31.7c0.3,0.5,0.1,1.1-0.4,1.3C390.8,68.3,390.6,68.4,390.5,68.4z"/>
				</g>
			</g>
			<g>
				<g>
					<path class="st8" d="M371.7,71.4c-0.2,0-0.4-0.1-0.6-0.2l-19.7-13.7c-0.5-0.3-0.6-0.9-0.3-1.4s0.9-0.6,1.4-0.3l19.7,13.7
						c0.5,0.3,0.6,0.9,0.3,1.4C372.3,71.2,372,71.4,371.7,71.4z"/>
				</g>
				<g>
					<path class="st8" d="M379.9,77.1c-0.2,0-0.4-0.1-0.6-0.2l-5.3-3.7c-0.5-0.3-0.6-0.9-0.3-1.4c0.3-0.5,0.9-0.6,1.4-0.3l5.3,3.7
						c0.5,0.3,0.6,0.9,0.3,1.4C380.5,76.9,380.2,77.1,379.9,77.1z"/>
				</g>
				<g>
					<path class="st8" d="M371.7,90.6c-0.2,0-0.4-0.1-0.6-0.2l-19.7-13.7c-0.5-0.3-0.6-0.9-0.3-1.4c0.3-0.5,0.9-0.6,1.4-0.3
						l19.7,13.7c0.5,0.3,0.6,0.9,0.3,1.4C372.3,90.4,372,90.6,371.7,90.6z"/>
				</g>
				<g>
					<path class="st8" d="M379.9,96.3c-0.2,0-0.4-0.1-0.6-0.2l-5.3-3.7c-0.5-0.3-0.6-0.9-0.3-1.4c0.3-0.5,0.9-0.6,1.4-0.3l5.3,3.7
						c0.5,0.3,0.6,0.9,0.3,1.4C380.5,96.1,380.2,96.3,379.9,96.3z"/>
				</g>
				<g>
					<path class="st8" d="M379.8,86.8c-0.2,0-0.4-0.1-0.6-0.2l-17.9-12.4c-0.5-0.3-0.6-0.9-0.3-1.4c0.3-0.5,0.9-0.6,1.4-0.3
						L380.4,85c0.5,0.3,0.6,0.9,0.3,1.4C380.5,86.6,380.2,86.8,379.8,86.8z"/>
				</g>
				<g>
					<path class="st8" d="M359,72.3c-0.2,0-0.4-0.1-0.6-0.2l-7.4-5.1c-0.5-0.3-0.6-0.9-0.3-1.4c0.3-0.5,0.9-0.6,1.4-0.3l7.4,5.1
						c0.5,0.3,0.6,0.9,0.3,1.4C359.6,72.2,359.3,72.3,359,72.3z"/>
				</g>
			</g>
		</g>
	</g>
	<g>
		<path class="st12" d="M381.1,35.2l11,7.6c1.2,0.8,1.9,2.2,1.9,3.6l-0.1,14.3c0,1.3-1.8,1.7-2.4,0.6l-12.2-24.5
			C378.8,35.6,380.1,34.5,381.1,35.2z"/>
	</g>
	<g class="st6">
		<g>
			<g>
				<g>
					<path class="st11" d="M461,155.9l-31.3-21.7c-2.6-1.8-4.2-4.8-4.2-8V87.9c0-1.4,1.6-2.3,2.8-1.4l6,4.3l7.3,5.2l14.4,10.1
						l7.5,5.4l6.6,4.7c1.4,1,2.3,2.6,2.3,4.4v27.2l0,7.6c0,3.6-4.1,5.7-7,3.6L461,155.9z"/>
				</g>
			</g>
		</g>
	</g>
	<g>
		<g>
			<g>
				<g>
					<g>
						<g>
							<path class="st8" d="M450.3,166.9c-0.2,0-0.4-0.1-0.6-0.2l-31.3-21.7c-2.9-2-4.6-5.3-4.6-8.8V98c0-1,0.6-2,1.5-2.5
								c0.9-0.5,2-0.4,2.9,0.2l6,4.3c0.5,0.3,0.6,0.9,0.2,1.4c-0.3,0.4-0.9,0.6-1.4,0.2l-6-4.3c-0.3-0.2-0.7-0.1-0.8-0.1
								c-0.1,0.1-0.4,0.3-0.4,0.7v38.3c0,2.9,1.4,5.6,3.8,7.2l31.3,21.7c0.5,0.3,0.6,0.9,0.3,1.4
								C450.9,166.8,450.6,166.9,450.3,166.9z"/>
						</g>
						<g>
							<path class="st8" d="M461.6,158.8c-0.6,0-1-0.4-1-1v-27.2c0-1.4-0.7-2.7-1.8-3.5l-6.6-4.7c-0.4-0.3-0.6-0.9-0.2-1.4
								c0.3-0.4,0.9-0.6,1.4-0.2l6.6,4.7c1.7,1.2,2.7,3.1,2.7,5.2v27.2C462.6,158.4,462.2,158.8,461.6,158.8z"/>
						</g>
						<g>
							<path class="st8" d="M445.3,117.2c-0.2,0-0.4-0.1-0.6-0.2l-14.4-10.1c-0.5-0.3-0.6-0.9-0.2-1.4c0.3-0.5,0.9-0.6,1.4-0.2
								l14.4,10.1c0.5,0.3,0.6,0.9,0.2,1.4C446,117,445.7,117.2,445.3,117.2z"/>
						</g>
					</g>
					<g>
						<g>
							<path class="st8" d="M442.9,136.8c-0.2,0-0.4-0.1-0.6-0.2L422.6,123c-0.5-0.3-0.6-0.9-0.3-1.4c0.3-0.5,0.9-0.6,1.4-0.3
								l19.7,13.7c0.5,0.3,0.6,0.9,0.3,1.4C443.5,136.7,443.2,136.8,442.9,136.8z"/>
						</g>
						<g>
							<path class="st8" d="M451.1,142.6c-0.2,0-0.4-0.1-0.6-0.2l-5.3-3.7c-0.5-0.3-0.6-0.9-0.3-1.4c0.3-0.5,0.9-0.6,1.4-0.3
								l5.3,3.7c0.5,0.3,0.6,0.9,0.3,1.4C451.7,142.4,451.4,142.6,451.1,142.6z"/>
						</g>
						<g>
							<path class="st8" d="M451,152.2c-0.2,0-0.4-0.1-0.6-0.2l-17.9-12.4c-0.5-0.3-0.6-0.9-0.3-1.4c0.3-0.5,0.9-0.6,1.4-0.3
								l17.9,12.4c0.5,0.3,0.6,0.9,0.3,1.4C451.7,152.1,451.4,152.2,451,152.2z"/>
						</g>
						<g>
							<path class="st8" d="M430.2,137.8c-0.2,0-0.4-0.1-0.6-0.2l-7.4-5.1c-0.5-0.3-0.6-0.9-0.3-1.4c0.3-0.5,0.9-0.6,1.4-0.3
								l7.4,5.1c0.5,0.3,0.6,0.9,0.3,1.4C430.9,137.6,430.5,137.8,430.2,137.8z"/>
						</g>
					</g>
				</g>
			</g>
			<g>
				<path class="st8" d="M448.8,127.4c-0.6,0-1-0.4-1-1v-10.5c0-0.8,0.3-1.6,1-2.1c0.9-0.8,2-1,3.1-0.5c1.1,0.5,1.7,1.5,1.7,2.6v5.5
					c0,0.6-0.4,1-1,1s-1-0.4-1-1v-5.5c0-0.5-0.4-0.7-0.5-0.8c-0.1-0.1-0.6-0.2-0.9,0.1c-0.2,0.2-0.3,0.4-0.3,0.7v10.5
					C449.8,126.9,449.4,127.4,448.8,127.4z"/>
			</g>
			<g>
				<path class="st8" d="M427.2,113.5c-0.6,0-1-0.4-1-1v-10.8c0-0.8,0.3-1.6,1-2.1c0.9-0.8,2-1,3.1-0.5c1.1,0.5,1.7,1.5,1.7,2.6v4.1
					c0,0.6-0.4,1-1,1s-1-0.4-1-1v-4.1c0-0.5-0.4-0.7-0.5-0.8c-0.1-0.1-0.6-0.2-0.9,0.1c-0.2,0.2-0.3,0.4-0.3,0.7v10.8
					C428.2,113.1,427.7,113.5,427.2,113.5z"/>
			</g>
		</g>
		<g>
			<path class="st8" d="M460.3,171c-0.1,0-0.1,0-0.2,0c-0.3-0.1-0.6-0.3-0.7-0.6l-6-12.5c-0.2-0.5,0-1.1,0.5-1.3
				c0.5-0.2,1.1,0,1.3,0.5l5.4,11.3l13.9-13.2c0.4-0.4,1-0.4,1.4,0c0.4,0.4,0.4,1,0,1.4L461,170.8C460.8,170.9,460.6,171,460.3,171z
				"/>
		</g>
	</g>
	<g class="st6">
		<g>
			<ellipse transform="matrix(0.9033 -0.4289 0.4289 0.9033 -27.1543 49.4596)" class="st11" cx="96.2" cy="85" rx="5.7" ry="9.9"/>
		</g>
		<g>
			
				<ellipse transform="matrix(0.9033 -0.4289 0.4289 0.9033 -11.1714 45.8576)" class="st11" cx="96.2" cy="47.7" rx="3.3" ry="5.7"/>
		</g>
		<g>
			
				<ellipse transform="matrix(0.9033 -0.4289 0.4289 0.9033 -42.6578 52.9536)" class="st11" cx="96.2" cy="121.1" rx="3.3" ry="5.7"/>
		</g>
		<g>
			
				<ellipse transform="matrix(0.9033 -0.4289 0.4289 0.9033 -34.0468 43.4338)" class="st11" cx="79.3" cy="97.3" rx="3.3" ry="5.7"/>
		</g>
		<g>
			
				<ellipse transform="matrix(0.9033 -0.4289 0.4289 0.9033 -19.3003 39.7533)" class="st11" cx="78.5" cy="62.7" rx="3.3" ry="5.7"/>
		</g>
	</g>
	<g>
		<g>
			<path class="st8" d="M88.9,105.2c-1,0-2.1-0.3-3.3-1c-4-2.3-7.1-8.1-7.1-13.1c0-2.7,1-4.9,2.7-5.8c1.5-0.9,3.5-0.8,5.5,0.4
				c4,2.3,7.1,8.1,7.1,13.1c0,2.7-1,4.9-2.7,5.8C90.5,105,89.7,105.2,88.9,105.2z M83.4,86.7c-0.5,0-0.9,0.1-1.2,0.3
				c-1.1,0.6-1.7,2.1-1.7,4.1c0,4.3,2.8,9.4,6.1,11.4c1.3,0.8,2.6,0.9,3.5,0.4c1.1-0.6,1.7-2.1,1.7-4.1c0-4.3-2.8-9.4-6.1-11.4
				C84.9,86.9,84.1,86.7,83.4,86.7z"/>
		</g>
		<g>
			<path class="st8" d="M87.7,64.1c-0.7,0-1.4-0.2-2.1-0.6c-2.4-1.4-4.3-4.9-4.3-8c0-1.7,0.6-3.1,1.8-3.7c1-0.6,2.3-0.5,3.6,0.2
				c2.4,1.4,4.3,4.9,4.3,8c0,1.7-0.6,3.1-1.8,3.7C88.8,63.9,88.3,64.1,87.7,64.1z M84.6,53.4c-0.2,0-0.3,0-0.5,0.1
				c-0.5,0.3-0.8,1-0.8,2c0,2.3,1.5,5.2,3.3,6.2c0.4,0.2,1.1,0.5,1.6,0.2c0.5-0.3,0.8-1,0.8-2c0-2.3-1.5-5.2-3.3-6.2
				C85.4,53.6,85,53.4,84.6,53.4z"/>
		</g>
		<g>
			<path class="st8" d="M87.7,137.5c-0.7,0-1.4-0.2-2.1-0.6c-2.4-1.4-4.3-4.9-4.3-8c0-1.7,0.6-3.1,1.8-3.7c1-0.6,2.3-0.5,3.6,0.2
				c2.4,1.4,4.3,4.9,4.3,8c0,1.7-0.6,3.1-1.8,3.7C88.8,137.4,88.3,137.5,87.7,137.5z M84.6,126.8c-0.2,0-0.3,0-0.5,0.1
				c-0.5,0.3-0.8,1-0.8,2c0,2.3,1.5,5.2,3.3,6.2c0.4,0.2,1.1,0.5,1.6,0.2c0.5-0.3,0.8-1,0.8-2c0-2.3-1.5-5.2-3.3-6.2
				C85.4,127,85,126.8,84.6,126.8z"/>
		</g>
		<g>
			<path class="st8" d="M70.9,113.6c-0.7,0-1.4-0.2-2.1-0.6c-2.4-1.4-4.3-4.9-4.3-8c0-1.7,0.6-3.1,1.8-3.7c1-0.6,2.3-0.5,3.6,0.2
				c2.4,1.4,4.3,4.9,4.3,8c0,1.7-0.6,3.1-1.8,3.7C72,113.5,71.5,113.6,70.9,113.6z M67.7,102.9c-0.2,0-0.3,0-0.5,0.1
				c-0.5,0.3-0.8,1-0.8,2c0,2.3,1.5,5.2,3.3,6.2c0.4,0.2,1.1,0.5,1.6,0.2c0.5-0.3,0.8-1,0.8-2c0-2.3-1.5-5.2-3.3-6.2
				C68.6,103.1,68.2,102.9,67.7,102.9z"/>
		</g>
		<g>
			<path class="st8" d="M70.1,79.1c-0.7,0-1.4-0.2-2.1-0.6c-2.4-1.4-4.3-4.9-4.3-8c0-1.7,0.6-3.1,1.8-3.7c1-0.6,2.3-0.5,3.6,0.2
				c2.4,1.4,4.3,4.9,4.3,8c0,1.7-0.6,3.1-1.8,3.7C71.2,78.9,70.7,79.1,70.1,79.1z M67,68.3c-0.2,0-0.3,0-0.5,0.1
				c-0.5,0.3-0.8,1-0.8,2c0,2.3,1.5,5.2,3.3,6.2c0.4,0.2,1.1,0.5,1.6,0.2c0.5-0.3,0.8-1,0.8-2c0-2.3-1.5-5.2-3.3-6.2
				C67.8,68.5,67.4,68.3,67,68.3z"/>
		</g>
		<g>
			<path class="st8" d="M86.2,127.2c-0.6,0-1-0.4-1-1v-22.8c0-0.6,0.4-1,1-1s1,0.4,1,1v22.8C87.2,126.8,86.7,127.2,86.2,127.2z"/>
		</g>
		<g>
			<path class="st8" d="M86.2,87.3c-0.6,0-1-0.4-1-1V63.5c0-0.6,0.4-1,1-1s1,0.4,1,1v22.8C87.2,86.9,86.7,87.3,86.2,87.3z"/>
		</g>
		<g>
			<path class="st8" d="M80.4,88.3c-0.3,0-0.6-0.1-0.8-0.4l-8.4-10c-0.4-0.4-0.3-1.1,0.1-1.4c0.4-0.4,1.1-0.3,1.4,0.1l8.4,10
				c0.4,0.4,0.3,1.1-0.1,1.4C80.8,88.2,80.6,88.3,80.4,88.3z"/>
		</g>
		<g>
			<path class="st8" d="M72.2,106.5c-0.3,0-0.6-0.1-0.8-0.4c-0.3-0.4-0.2-1.1,0.2-1.4l9.4-6.9c0.4-0.3,1.1-0.2,1.4,0.2
				c0.3,0.4,0.2,1.1-0.2,1.4l-9.4,6.9C72.6,106.5,72.4,106.5,72.2,106.5z"/>
		</g>
	</g>
</g>
</svg>
